<?xml version="1.0" standalone="no"?>
<!DOCTYPE svg PUBLIC "-//W3C//DTD SVG 20010904//EN"
 "http://www.w3.org/TR/2001/REC-SVG-20010904/DTD/svg10.dtd">
<svg version="1.0" xmlns="http://www.w3.org/2000/svg"
 width="192.000000pt" height="192.000000pt" viewBox="0 0 192.000000 192.000000"
 preserveAspectRatio="xMidYMid meet">

<g transform="translate(0.000000,192.000000) scale(0.100000,-0.100000)"
fill="#000000" stroke="none">
<path d="M325 1908 c-38 -5 -90 -18 -115 -30 -59 -29 -140 -111 -168 -171 -39
-83 -44 -180 -40 -809 4 -526 6 -599 21 -643 35 -102 128 -195 232 -231 44
-15 101 -18 448 -22 282 -3 397 -1 397 7 0 6 -6 11 -12 11 -14 0 -68 71 -68
88 0 5 -12 12 -28 15 -15 3 -40 17 -56 31 -19 16 -35 22 -44 17 -16 -9 -129
104 -156 158 -10 18 -24 31 -35 31 -17 0 -46 36 -97 121 -5 10 -20 26 -32 36
-12 10 -35 56 -52 103 -16 47 -30 81 -30 75 0 -5 -6 2 -14 17 -16 29 -22 84
-13 108 3 8 8 36 11 62 6 51 45 140 93 209 61 88 162 136 306 146 83 5 97 3
148 -19 52 -24 98 -68 128 -125 16 -32 14 -134 -4 -160 -8 -12 -12 -24 -7 -27
13 -8 56 17 67 39 6 13 18 19 33 17 25 -4 28 9 10 59 -22 65 -120 182 -144
172 -8 -3 -14 -1 -14 5 0 5 -8 13 -17 16 -34 12 -68 36 -66 46 2 5 -9 16 -25
23 -31 17 -174 50 -214 51 -34 1 -38 19 -6 28 15 4 5 6 -30 7 -36 1 -51 5 -50
14 2 8 -15 13 -52 15 -38 2 -50 6 -40 13 13 8 13 10 1 18 -21 13 123 25 208
16 39 -4 73 -7 76 -6 19 2 99 -37 168 -83 73 -48 187 -96 187 -78 0 3 5 1 12
-6 16 -16 31 -15 22 1 -4 6 2 4 13 -5 11 -10 25 -18 31 -18 7 0 12 -4 12 -10
0 -5 9 -10 20 -10 24 0 26 13 5 30 -8 7 -12 16 -10 21 3 4 -3 13 -12 19 -15 8
-12 9 12 4 l30 -6 -35 26 c-19 15 -33 28 -30 29 12 5 -69 101 -100 118 -61 34
-145 89 -136 89 5 0 1 9 -8 19 -10 11 -24 17 -31 15 -7 -3 -16 -1 -20 5 -3 6
-14 11 -24 11 -9 0 -27 9 -39 20 -12 11 -32 20 -45 20 -14 0 -30 6 -36 14 -6
8 -32 19 -56 25 -25 6 -45 16 -45 21 0 6 -15 10 -32 10 -28 0 -37 6 -56 40
-12 22 -28 40 -36 40 -7 0 -30 9 -52 21 l-39 20 45 -7 c25 -3 61 -7 80 -8 19
0 46 -8 60 -17 14 -10 35 -20 48 -24 22 -6 22 -5 10 14 -7 12 -29 26 -48 32
-19 6 -45 21 -57 32 -13 11 -23 17 -23 13 0 -5 -7 -3 -15 4 -9 7 -14 19 -11
27 5 11 -17 13 -117 11 -67 -1 -153 -5 -192 -10z m903 -585 c13 -14 21 -27 19
-30 -7 -6 -61 20 -70 35 -6 10 -12 10 -22 2 -9 -8 -14 -7 -18 4 -3 8 -3 17 1
20 12 13 68 -6 90 -31z"/>
<path d="M1819 1758 c-7 -8 -21 -17 -29 -20 -9 -3 -16 -17 -18 -31 -1 -20 8
-32 38 -54 40 -29 55 -60 45 -94 -4 -10 -2 -19 2 -19 11 0 43 -64 43 -85 0 -7
5 -17 11 -21 9 -5 10 18 5 87 -8 112 -27 184 -59 223 -20 25 -25 27 -38 14z"/>
<path d="M974 1353 c11 -13 25 -23 33 -23 8 0 11 -5 8 -10 -3 -6 1 -13 9 -16
9 -3 16 -13 16 -21 0 -8 6 -13 12 -11 7 3 33 -1 57 -9 24 -7 47 -10 50 -7 3 4
1 9 -6 11 -6 2 -30 18 -53 34 -22 16 -45 27 -50 24 -9 -6 -39 8 -75 35 -20 15
-20 15 -1 -7z"/>
<path d="M1547 1264 c-6 -10 9 -42 16 -34 3 3 1 14 -3 24 -3 11 -9 15 -13 10z"/>
<path d="M1550 1208 c0 -4 4 -8 9 -8 6 0 12 4 15 8 3 5 -1 9 -9 9 -8 0 -15 -4
-15 -9z"/>
<path d="M1265 1140 c3 -5 8 -10 11 -10 2 0 4 5 4 10 0 6 -5 10 -11 10 -5 0
-7 -4 -4 -10z"/>
<path d="M790 1120 c-13 -8 -11 -11 7 -16 34 -9 17 -24 -26 -24 -66 0 -142
-76 -180 -181 -14 -39 13 -33 33 7 8 19 28 48 43 65 33 36 141 99 171 99 29 0
42 -27 30 -62 -5 -15 -8 -33 -5 -40 4 -8 6 -7 6 4 1 12 6 15 17 11 10 -4 29 9
55 36 39 40 40 41 64 25 18 -12 25 -25 25 -49 0 -28 3 -32 19 -28 11 3 21 14
24 24 8 29 -79 114 -129 128 -49 14 -134 14 -154 1z"/>
<path d="M988 983 c7 -3 16 -2 19 1 4 3 -2 6 -13 5 -11 0 -14 -3 -6 -6z"/>
<path d="M1400 925 c-10 -12 -16 -13 -28 -3 -11 9 -14 10 -9 1 5 -8 -7 -20
-33 -35 -22 -13 -43 -31 -46 -40 -5 -18 -54 -22 -54 -6 0 4 -10 8 -22 8 -21 0
-21 -1 6 -15 15 -8 38 -15 50 -15 51 1 146 66 152 105 3 19 0 19 -16 0z"/>
<path d="M757 883 c-18 -17 -5 -31 31 -30 20 0 48 -3 62 -8 21 -6 20 -4 -9 19
-33 25 -70 33 -84 19z"/>
<path d="M472 780 c0 -14 2 -19 5 -12 2 6 2 18 0 25 -3 6 -5 1 -5 -13z"/>
<path d="M1565 760 c-3 -5 -2 -10 4 -10 5 0 13 5 16 10 3 6 2 10 -4 10 -5 0
-13 -4 -16 -10z"/>
<path d="M1590 745 c-7 -8 -21 -15 -31 -15 -16 0 -17 -3 -7 -19 15 -25 44 -12
50 24 6 29 5 30 -12 10z"/>
<path d="M1897 721 c-10 -22 -25 -41 -33 -41 -8 0 -14 -5 -14 -11 0 -5 -4 -8
-9 -5 -5 3 -14 -1 -21 -9 -7 -8 -19 -15 -26 -15 -8 0 -14 -11 -14 -26 0 -17
-6 -28 -20 -31 -11 -3 -20 -9 -20 -13 0 -9 -48 -32 -75 -36 -11 -1 -31 -5 -45
-9 -14 -3 -32 -1 -40 5 -13 9 -13 11 0 20 13 8 13 10 -2 10 -9 0 -22 8 -27 18
-8 13 -10 14 -11 2 0 -9 -3 -11 -8 -5 -4 6 -18 11 -32 11 -14 1 -45 3 -70 5
-42 3 -45 2 -45 -21 0 -22 7 -27 65 -42 36 -9 91 -17 122 -17 58 -1 92 -20 41
-23 -122 -7 -180 -4 -205 11 -16 8 -28 19 -28 22 0 4 -11 6 -25 3 -16 -3 -25
0 -25 8 0 10 -2 10 -8 1 -10 -16 -105 8 -144 37 -31 23 -85 26 -111 6 -21 -16
-57 -10 -57 10 0 12 -24 19 -51 16 -10 -2 -5 32 5 39 5 4 5 13 0 22 -8 13 -12
13 -28 2 -23 -17 -17 -79 13 -142 12 -23 21 -45 21 -48 0 -11 -39 -5 -43 8 -8
21 -29 -46 -24 -78 8 -53 15 -73 48 -142 25 -54 53 -89 132 -165 l100 -98 156
0 c190 0 311 14 371 42 59 29 140 111 168 171 31 67 43 181 40 381 l-3 169
-18 -42z"/>
</g>
</svg>
